# xmcd
#
# Track frame offsets:
#	150
#	607
#	17398
#	37784
#	63156
#	81289
#	101605
#	124076
#	143526
#	166557
#	188408
#	210002
#	234563
#	254655
#	277012
#	291967
#	308990
#	325348
#
# Disc length: 4368 seconds
#
# Revision: 0
# Processed by: cddbd v1.5.1PL0 Copyright (c) Steve Scherf et al.
# Submitted via: dBpowerAMP V4.0
#
DISCID=e3110e12
DTITLE=Torbjörn Flygt - Verkan - CD-BOK 07/07
DYEAR=2004
DGENRE=CD-BOK
TTITLE0=07.01
TTITLE1=07.02
TTITLE2=07.03
TTITLE3=07.04
TTITLE4=07.05
TTITLE5=07.06
TTITLE6=07.07
TTITLE7=07.08
TTITLE8=07.09
TTITLE9=07.10
TTITLE10=07.11
TTITLE11=07.12
TTITLE12=07.13
TTITLE13=07.14
TTITLE14=07.15
TTITLE15=07.16
TTITLE16=07.17
TTITLE17=07.18
EXTD=
EXTT0=
EXTT1=
EXTT2=
EXTT3=
EXTT4=
EXTT5=
EXTT6=
EXTT7=
EXTT8=
EXTT9=
EXTT10=
EXTT11=
EXTT12=
EXTT13=
EXTT14=
EXTT15=
EXTT16=
EXTT17=
PLAYORDER=
